<?xml version="1.0" encoding="utf-8" standalone="no"?>
<!DOCTYPE svg PUBLIC "-//W3C//DTD SVG 1.1//EN"
  "http://www.w3.org/Graphics/SVG/1.1/DTD/svg11.dtd">
<svg xmlns:xlink="http://www.w3.org/1999/xlink" width="841.11875pt" height="236.311563pt" viewBox="0 0 841.11875 236.311563" xmlns="http://www.w3.org/2000/svg" version="1.1">
 <metadata>
  <rdf:RDF xmlns:dc="http://purl.org/dc/elements/1.1/" xmlns:cc="http://creativecommons.org/ns#" xmlns:rdf="http://www.w3.org/1999/02/22-rdf-syntax-ns#">
   <cc:Work>
    <dc:type rdf:resource="http://purl.org/dc/dcmitype/StillImage"/>
    <dc:date>2024-04-10T19:03:33.745048</dc:date>
    <dc:format>image/svg+xml</dc:format>
    <dc:creator>
     <cc:Agent>
      <dc:title>Matplotlib v3.8.3, https://matplotlib.org/</dc:title>
     </cc:Agent>
    </dc:creator>
   </cc:Work>
  </rdf:RDF>
 </metadata>
 <defs>
  <style type="text/css">*{stroke-linejoin: round; stroke-linecap: butt}</style>
 </defs>
 <g id="figure_1">
  <g id="patch_1">
   <path d="M 0 236.311563 
L 841.11875 236.311563 
L 841.11875 0 
L 0 0 
z
" style="fill: #ffffff"/>
  </g>
  <g id="axes_1">
   <g id="patch_2">
    <path d="M 52.71875 183.623063 
L 833.91875 183.623063 
L 833.91875 11.759062 
L 52.71875 11.759062 
z
" style="fill: #ffffff"/>
   </g>
   <g id="matplotlib.axis_1">
    <g id="xtick_1">
     <g id="line2d_1">
      <defs>
       <path id="med46a7db73" d="M 0 0 
L 0 3.5 
" style="stroke: #000000; stroke-width: 0.8"/>
      </defs>
      <g>
       <use xlink:href="#med46a7db73" x="122.591477" y="183.623063" style="stroke: #000000; stroke-width: 0.8"/>
      </g>
     </g>
     <g id="text_1">
      <!-- 20 pods -->
      <g transform="translate(98.634602 199.741188) scale(0.12 -0.12)">
       <defs>
        <path id="DejaVuSans-32" d="M 1228 531 
L 3431 531 
L 3431 0 
L 469 0 
L 469 531 
Q 828 903 1448 1529 
Q 2069 2156 2228 2338 
Q 2531 2678 2651 2914 
Q 2772 3150 2772 3378 
Q 2772 3750 2511 3984 
Q 2250 4219 1831 4219 
Q 1534 4219 1204 4116 
Q 875 4013 500 3803 
L 500 4441 
Q 881 4594 1212 4672 
Q 1544 4750 1819 4750 
Q 2544 4750 2975 4387 
Q 3406 4025 3406 3419 
Q 3406 3131 3298 2873 
Q 3191 2616 2906 2266 
Q 2828 2175 2409 1742 
Q 1991 1309 1228 531 
z
" transform="scale(0.015625)"/>
        <path id="DejaVuSans-30" d="M 2034 4250 
Q 1547 4250 1301 3770 
Q 1056 3291 1056 2328 
Q 1056 1369 1301 889 
Q 1547 409 2034 409 
Q 2525 409 2770 889 
Q 3016 1369 3016 2328 
Q 3016 3291 2770 3770 
Q 2525 4250 2034 4250 
z
M 2034 4750 
Q 2819 4750 3233 4129 
Q 3647 3509 3647 2328 
Q 3647 1150 3233 529 
Q 2819 -91 2034 -91 
Q 1250 -91 836 529 
Q 422 1150 422 2328 
Q 422 3509 836 4129 
Q 1250 4750 2034 4750 
z
" transform="scale(0.015625)"/>
        <path id="DejaVuSans-20" transform="scale(0.015625)"/>
        <path id="DejaVuSans-70" d="M 1159 525 
L 1159 -1331 
L 581 -1331 
L 581 3500 
L 1159 3500 
L 1159 2969 
Q 1341 3281 1617 3432 
Q 1894 3584 2278 3584 
Q 2916 3584 3314 3078 
Q 3713 2572 3713 1747 
Q 3713 922 3314 415 
Q 2916 -91 2278 -91 
Q 1894 -91 1617 61 
Q 1341 213 1159 525 
z
M 3116 1747 
Q 3116 2381 2855 2742 
Q 2594 3103 2138 3103 
Q 1681 3103 1420 2742 
Q 1159 2381 1159 1747 
Q 1159 1113 1420 752 
Q 1681 391 2138 391 
Q 2594 391 2855 752 
Q 3116 1113 3116 1747 
z
" transform="scale(0.015625)"/>
        <path id="DejaVuSans-6f" d="M 1959 3097 
Q 1497 3097 1228 2736 
Q 959 2375 959 1747 
Q 959 1119 1226 758 
Q 1494 397 1959 397 
Q 2419 397 2687 759 
Q 2956 1122 2956 1747 
Q 2956 2369 2687 2733 
Q 2419 3097 1959 3097 
z
M 1959 3584 
Q 2709 3584 3137 3096 
Q 3566 2609 3566 1747 
Q 3566 888 3137 398 
Q 2709 -91 1959 -91 
Q 1206 -91 779 398 
Q 353 888 353 1747 
Q 353 2609 779 3096 
Q 1206 3584 1959 3584 
z
" transform="scale(0.015625)"/>
        <path id="DejaVuSans-64" d="M 2906 2969 
L 2906 4863 
L 3481 4863 
L 3481 0 
L 2906 0 
L 2906 525 
Q 2725 213 2448 61 
Q 2172 -91 1784 -91 
Q 1150 -91 751 415 
Q 353 922 353 1747 
Q 353 2572 751 3078 
Q 1150 3584 1784 3584 
Q 2172 3584 2448 3432 
Q 2725 3281 2906 2969 
z
M 947 1747 
Q 947 1113 1208 752 
Q 1469 391 1925 391 
Q 2381 391 2643 752 
Q 2906 1113 2906 1747 
Q 2906 2381 2643 2742 
Q 2381 3103 1925 3103 
Q 1469 3103 1208 2742 
Q 947 2381 947 1747 
z
" transform="scale(0.015625)"/>
        <path id="DejaVuSans-73" d="M 2834 3397 
L 2834 2853 
Q 2591 2978 2328 3040 
Q 2066 3103 1784 3103 
Q 1356 3103 1142 2972 
Q 928 2841 928 2578 
Q 928 2378 1081 2264 
Q 1234 2150 1697 2047 
L 1894 2003 
Q 2506 1872 2764 1633 
Q 3022 1394 3022 966 
Q 3022 478 2636 193 
Q 2250 -91 1575 -91 
Q 1294 -91 989 -36 
Q 684 19 347 128 
L 347 722 
Q 666 556 975 473 
Q 1284 391 1588 391 
Q 1994 391 2212 530 
Q 2431 669 2431 922 
Q 2431 1156 2273 1281 
Q 2116 1406 1581 1522 
L 1381 1569 
Q 847 1681 609 1914 
Q 372 2147 372 2553 
Q 372 3047 722 3315 
Q 1072 3584 1716 3584 
Q 2034 3584 2315 3537 
Q 2597 3491 2834 3397 
z
" transform="scale(0.015625)"/>
       </defs>
       <use xlink:href="#DejaVuSans-32"/>
       <use xlink:href="#DejaVuSans-30" x="63.623047"/>
       <use xlink:href="#DejaVuSans-20" x="127.246094"/>
       <use xlink:href="#DejaVuSans-70" x="159.033203"/>
       <use xlink:href="#DejaVuSans-6f" x="222.509766"/>
       <use xlink:href="#DejaVuSans-64" x="283.691406"/>
       <use xlink:href="#DejaVuSans-73" x="347.167969"/>
      </g>
      <!-- 20 req/s -->
      <g transform="translate(98.070227 213.178563) scale(0.12 -0.12)">
       <defs>
        <path id="DejaVuSans-72" d="M 2631 2963 
Q 2534 3019 2420 3045 
Q 2306 3072 2169 3072 
Q 1681 3072 1420 2755 
Q 1159 2438 1159 1844 
L 1159 0 
L 581 0 
L 581 3500 
L 1159 3500 
L 1159 2956 
Q 1341 3275 1631 3429 
Q 1922 3584 2338 3584 
Q 2397 3584 2469 3576 
Q 2541 3569 2628 3553 
L 2631 2963 
z
" transform="scale(0.015625)"/>
        <path id="DejaVuSans-65" d="M 3597 1894 
L 3597 1613 
L 953 1613 
Q 991 1019 1311 708 
Q 1631 397 2203 397 
Q 2534 397 2845 478 
Q 3156 559 3463 722 
L 3463 178 
Q 3153 47 2828 -22 
Q 2503 -91 2169 -91 
Q 1331 -91 842 396 
Q 353 884 353 1716 
Q 353 2575 817 3079 
Q 1281 3584 2069 3584 
Q 2775 3584 3186 3129 
Q 3597 2675 3597 1894 
z
M 3022 2063 
Q 3016 2534 2758 2815 
Q 2500 3097 2075 3097 
Q 1594 3097 1305 2825 
Q 1016 2553 972 2059 
L 3022 2063 
z
" transform="scale(0.015625)"/>
        <path id="DejaVuSans-71" d="M 947 1747 
Q 947 1113 1208 752 
Q 1469 391 1925 391 
Q 2381 391 2643 752 
Q 2906 1113 2906 1747 
Q 2906 2381 2643 2742 
Q 2381 3103 1925 3103 
Q 1469 3103 1208 2742 
Q 947 2381 947 1747 
z
M 2906 525 
Q 2725 213 2448 61 
Q 2172 -91 1784 -91 
Q 1150 -91 751 415 
Q 353 922 353 1747 
Q 353 2572 751 3078 
Q 1150 3584 1784 3584 
Q 2172 3584 2448 3432 
Q 2725 3281 2906 2969 
L 2906 3500 
L 3481 3500 
L 3481 -1331 
L 2906 -1331 
L 2906 525 
z
" transform="scale(0.015625)"/>
        <path id="DejaVuSans-2f" d="M 1625 4666 
L 2156 4666 
L 531 -594 
L 0 -594 
L 1625 4666 
z
" transform="scale(0.015625)"/>
       </defs>
       <use xlink:href="#DejaVuSans-32"/>
       <use xlink:href="#DejaVuSans-30" x="63.623047"/>
       <use xlink:href="#DejaVuSans-20" x="127.246094"/>
       <use xlink:href="#DejaVuSans-72" x="159.033203"/>
       <use xlink:href="#DejaVuSans-65" x="197.896484"/>
       <use xlink:href="#DejaVuSans-71" x="259.419922"/>
       <use xlink:href="#DejaVuSans-2f" x="322.896484"/>
       <use xlink:href="#DejaVuSans-73" x="356.587891"/>
      </g>
      <!-- constante -->
      <g transform="translate(92.817415 226.615938) scale(0.12 -0.12)">
       <defs>
        <path id="DejaVuSans-63" d="M 3122 3366 
L 3122 2828 
Q 2878 2963 2633 3030 
Q 2388 3097 2138 3097 
Q 1578 3097 1268 2742 
Q 959 2388 959 1747 
Q 959 1106 1268 751 
Q 1578 397 2138 397 
Q 2388 397 2633 464 
Q 2878 531 3122 666 
L 3122 134 
Q 2881 22 2623 -34 
Q 2366 -91 2075 -91 
Q 1284 -91 818 406 
Q 353 903 353 1747 
Q 353 2603 823 3093 
Q 1294 3584 2113 3584 
Q 2378 3584 2631 3529 
Q 2884 3475 3122 3366 
z
" transform="scale(0.015625)"/>
        <path id="DejaVuSans-6e" d="M 3513 2113 
L 3513 0 
L 2938 0 
L 2938 2094 
Q 2938 2591 2744 2837 
Q 2550 3084 2163 3084 
Q 1697 3084 1428 2787 
Q 1159 2491 1159 1978 
L 1159 0 
L 581 0 
L 581 3500 
L 1159 3500 
L 1159 2956 
Q 1366 3272 1645 3428 
Q 1925 3584 2291 3584 
Q 2894 3584 3203 3211 
Q 3513 2838 3513 2113 
z
" transform="scale(0.015625)"/>
        <path id="DejaVuSans-74" d="M 1172 4494 
L 1172 3500 
L 2356 3500 
L 2356 3053 
L 1172 3053 
L 1172 1153 
Q 1172 725 1289 603 
Q 1406 481 1766 481 
L 2356 481 
L 2356 0 
L 1766 0 
Q 1100 0 847 248 
Q 594 497 594 1153 
L 594 3053 
L 172 3053 
L 172 3500 
L 594 3500 
L 594 4494 
L 1172 4494 
z
" transform="scale(0.015625)"/>
        <path id="DejaVuSans-61" d="M 2194 1759 
Q 1497 1759 1228 1600 
Q 959 1441 959 1056 
Q 959 750 1161 570 
Q 1363 391 1709 391 
Q 2188 391 2477 730 
Q 2766 1069 2766 1631 
L 2766 1759 
L 2194 1759 
z
M 3341 1997 
L 3341 0 
L 2766 0 
L 2766 531 
Q 2569 213 2275 61 
Q 1981 -91 1556 -91 
Q 1019 -91 701 211 
Q 384 513 384 1019 
Q 384 1609 779 1909 
Q 1175 2209 1959 2209 
L 2766 2209 
L 2766 2266 
Q 2766 2663 2505 2880 
Q 2244 3097 1772 3097 
Q 1472 3097 1187 3025 
Q 903 2953 641 2809 
L 641 3341 
Q 956 3463 1253 3523 
Q 1550 3584 1831 3584 
Q 2591 3584 2966 3190 
Q 3341 2797 3341 1997 
z
" transform="scale(0.015625)"/>
       </defs>
       <use xlink:href="#DejaVuSans-63"/>
       <use xlink:href="#DejaVuSans-6f" x="54.980469"/>
       <use xlink:href="#DejaVuSans-6e" x="116.162109"/>
       <use xlink:href="#DejaVuSans-73" x="179.541016"/>
       <use xlink:href="#DejaVuSans-74" x="231.640625"/>
       <use xlink:href="#DejaVuSans-61" x="270.849609"/>
       <use xlink:href="#DejaVuSans-6e" x="332.128906"/>
       <use xlink:href="#DejaVuSans-74" x="395.507812"/>
       <use xlink:href="#DejaVuSans-65" x="434.716797"/>
      </g>
     </g>
    </g>
    <g id="xtick_2">
     <g id="line2d_2">
      <g>
       <use xlink:href="#med46a7db73" x="214.227841" y="183.623063" style="stroke: #000000; stroke-width: 0.8"/>
      </g>
     </g>
     <g id="text_2">
      <!-- 40 pods -->
      <g transform="translate(190.270966 199.741188) scale(0.12 -0.12)">
       <defs>
        <path id="DejaVuSans-34" d="M 2419 4116 
L 825 1625 
L 2419 1625 
L 2419 4116 
z
M 2253 4666 
L 3047 4666 
L 3047 1625 
L 3713 1625 
L 3713 1100 
L 3047 1100 
L 3047 0 
L 2419 0 
L 2419 1100 
L 313 1100 
L 313 1709 
L 2253 4666 
z
" transform="scale(0.015625)"/>
       </defs>
       <use xlink:href="#DejaVuSans-34"/>
       <use xlink:href="#DejaVuSans-30" x="63.623047"/>
       <use xlink:href="#DejaVuSans-20" x="127.246094"/>
       <use xlink:href="#DejaVuSans-70" x="159.033203"/>
       <use xlink:href="#DejaVuSans-6f" x="222.509766"/>
       <use xlink:href="#DejaVuSans-64" x="283.691406"/>
       <use xlink:href="#DejaVuSans-73" x="347.167969"/>
      </g>
      <!-- 20 req/s -->
      <g transform="translate(189.706591 213.178563) scale(0.12 -0.12)">
       <use xlink:href="#DejaVuSans-32"/>
       <use xlink:href="#DejaVuSans-30" x="63.623047"/>
       <use xlink:href="#DejaVuSans-20" x="127.246094"/>
       <use xlink:href="#DejaVuSans-72" x="159.033203"/>
       <use xlink:href="#DejaVuSans-65" x="197.896484"/>
       <use xlink:href="#DejaVuSans-71" x="259.419922"/>
       <use xlink:href="#DejaVuSans-2f" x="322.896484"/>
       <use xlink:href="#DejaVuSans-73" x="356.587891"/>
      </g>
      <!-- constante -->
      <g transform="translate(184.453778 226.615938) scale(0.12 -0.12)">
       <use xlink:href="#DejaVuSans-63"/>
       <use xlink:href="#DejaVuSans-6f" x="54.980469"/>
       <use xlink:href="#DejaVuSans-6e" x="116.162109"/>
       <use xlink:href="#DejaVuSans-73" x="179.541016"/>
       <use xlink:href="#DejaVuSans-74" x="231.640625"/>
       <use xlink:href="#DejaVuSans-61" x="270.849609"/>
       <use xlink:href="#DejaVuSans-6e" x="332.128906"/>
       <use xlink:href="#DejaVuSans-74" x="395.507812"/>
       <use xlink:href="#DejaVuSans-65" x="434.716797"/>
      </g>
     </g>
    </g>
    <g id="xtick_3">
     <g id="line2d_3">
      <g>
       <use xlink:href="#med46a7db73" x="305.864205" y="183.623063" style="stroke: #000000; stroke-width: 0.8"/>
      </g>
     </g>
     <g id="text_3">
      <!-- 20 pods -->
      <g transform="translate(281.90733 199.741188) scale(0.12 -0.12)">
       <use xlink:href="#DejaVuSans-32"/>
       <use xlink:href="#DejaVuSans-30" x="63.623047"/>
       <use xlink:href="#DejaVuSans-20" x="127.246094"/>
       <use xlink:href="#DejaVuSans-70" x="159.033203"/>
       <use xlink:href="#DejaVuSans-6f" x="222.509766"/>
       <use xlink:href="#DejaVuSans-64" x="283.691406"/>
       <use xlink:href="#DejaVuSans-73" x="347.167969"/>
      </g>
      <!-- 40 req/s -->
      <g transform="translate(281.342955 213.178563) scale(0.12 -0.12)">
       <use xlink:href="#DejaVuSans-34"/>
       <use xlink:href="#DejaVuSans-30" x="63.623047"/>
       <use xlink:href="#DejaVuSans-20" x="127.246094"/>
       <use xlink:href="#DejaVuSans-72" x="159.033203"/>
       <use xlink:href="#DejaVuSans-65" x="197.896484"/>
       <use xlink:href="#DejaVuSans-71" x="259.419922"/>
       <use xlink:href="#DejaVuSans-2f" x="322.896484"/>
       <use xlink:href="#DejaVuSans-73" x="356.587891"/>
      </g>
      <!-- constante -->
      <g transform="translate(276.090142 226.615938) scale(0.12 -0.12)">
       <use xlink:href="#DejaVuSans-63"/>
       <use xlink:href="#DejaVuSans-6f" x="54.980469"/>
       <use xlink:href="#DejaVuSans-6e" x="116.162109"/>
       <use xlink:href="#DejaVuSans-73" x="179.541016"/>
       <use xlink:href="#DejaVuSans-74" x="231.640625"/>
       <use xlink:href="#DejaVuSans-61" x="270.849609"/>
       <use xlink:href="#DejaVuSans-6e" x="332.128906"/>
       <use xlink:href="#DejaVuSans-74" x="395.507812"/>
       <use xlink:href="#DejaVuSans-65" x="434.716797"/>
      </g>
     </g>
    </g>
    <g id="xtick_4">
     <g id="line2d_4">
      <g>
       <use xlink:href="#med46a7db73" x="397.500568" y="183.623063" style="stroke: #000000; stroke-width: 0.8"/>
      </g>
     </g>
     <g id="text_4">
      <!-- 40 pods -->
      <g transform="translate(373.543693 199.741188) scale(0.12 -0.12)">
       <use xlink:href="#DejaVuSans-34"/>
       <use xlink:href="#DejaVuSans-30" x="63.623047"/>
       <use xlink:href="#DejaVuSans-20" x="127.246094"/>
       <use xlink:href="#DejaVuSans-70" x="159.033203"/>
       <use xlink:href="#DejaVuSans-6f" x="222.509766"/>
       <use xlink:href="#DejaVuSans-64" x="283.691406"/>
       <use xlink:href="#DejaVuSans-73" x="347.167969"/>
      </g>
      <!-- 40 req/s -->
      <g transform="translate(372.979318 213.178563) scale(0.12 -0.12)">
       <use xlink:href="#DejaVuSans-34"/>
       <use xlink:href="#DejaVuSans-30" x="63.623047"/>
       <use xlink:href="#DejaVuSans-20" x="127.246094"/>
       <use xlink:href="#DejaVuSans-72" x="159.033203"/>
       <use xlink:href="#DejaVuSans-65" x="197.896484"/>
       <use xlink:href="#DejaVuSans-71" x="259.419922"/>
       <use xlink:href="#DejaVuSans-2f" x="322.896484"/>
       <use xlink:href="#DejaVuSans-73" x="356.587891"/>
      </g>
      <!-- constante -->
      <g transform="translate(367.726506 226.615938) scale(0.12 -0.12)">
       <use xlink:href="#DejaVuSans-63"/>
       <use xlink:href="#DejaVuSans-6f" x="54.980469"/>
       <use xlink:href="#DejaVuSans-6e" x="116.162109"/>
       <use xlink:href="#DejaVuSans-73" x="179.541016"/>
       <use xlink:href="#DejaVuSans-74" x="231.640625"/>
       <use xlink:href="#DejaVuSans-61" x="270.849609"/>
       <use xlink:href="#DejaVuSans-6e" x="332.128906"/>
       <use xlink:href="#DejaVuSans-74" x="395.507812"/>
       <use xlink:href="#DejaVuSans-65" x="434.716797"/>
      </g>
     </g>
    </g>
    <g id="xtick_5">
     <g id="line2d_5">
      <g>
       <use xlink:href="#med46a7db73" x="489.136932" y="183.623063" style="stroke: #000000; stroke-width: 0.8"/>
      </g>
     </g>
     <g id="text_5">
      <!-- 20 pods, -->
      <g transform="translate(463.273182 199.741188) scale(0.12 -0.12)">
       <defs>
        <path id="DejaVuSans-2c" d="M 750 794 
L 1409 794 
L 1409 256 
L 897 -744 
L 494 -744 
L 750 256 
L 750 794 
z
" transform="scale(0.015625)"/>
       </defs>
       <use xlink:href="#DejaVuSans-32"/>
       <use xlink:href="#DejaVuSans-30" x="63.623047"/>
       <use xlink:href="#DejaVuSans-20" x="127.246094"/>
       <use xlink:href="#DejaVuSans-70" x="159.033203"/>
       <use xlink:href="#DejaVuSans-6f" x="222.509766"/>
       <use xlink:href="#DejaVuSans-64" x="283.691406"/>
       <use xlink:href="#DejaVuSans-73" x="347.167969"/>
       <use xlink:href="#DejaVuSans-2c" x="399.267578"/>
      </g>
      <!-- 20 req/s -->
      <g transform="translate(464.615682 213.178563) scale(0.12 -0.12)">
       <use xlink:href="#DejaVuSans-32"/>
       <use xlink:href="#DejaVuSans-30" x="63.623047"/>
       <use xlink:href="#DejaVuSans-20" x="127.246094"/>
       <use xlink:href="#DejaVuSans-72" x="159.033203"/>
       <use xlink:href="#DejaVuSans-65" x="197.896484"/>
       <use xlink:href="#DejaVuSans-71" x="259.419922"/>
       <use xlink:href="#DejaVuSans-2f" x="322.896484"/>
       <use xlink:href="#DejaVuSans-73" x="356.587891"/>
      </g>
      <!-- linear -->
      <g transform="translate(472.165369 226.615938) scale(0.12 -0.12)">
       <defs>
        <path id="DejaVuSans-6c" d="M 603 4863 
L 1178 4863 
L 1178 0 
L 603 0 
L 603 4863 
z
" transform="scale(0.015625)"/>
        <path id="DejaVuSans-69" d="M 603 3500 
L 1178 3500 
L 1178 0 
L 603 0 
L 603 3500 
z
M 603 4863 
L 1178 4863 
L 1178 4134 
L 603 4134 
L 603 4863 
z
" transform="scale(0.015625)"/>
       </defs>
       <use xlink:href="#DejaVuSans-6c"/>
       <use xlink:href="#DejaVuSans-69" x="27.783203"/>
       <use xlink:href="#DejaVuSans-6e" x="55.566406"/>
       <use xlink:href="#DejaVuSans-65" x="118.945312"/>
       <use xlink:href="#DejaVuSans-61" x="180.46875"/>
       <use xlink:href="#DejaVuSans-72" x="241.748047"/>
      </g>
     </g>
    </g>
    <g id="xtick_6">
     <g id="line2d_6">
      <g>
       <use xlink:href="#med46a7db73" x="580.773295" y="183.623063" style="stroke: #000000; stroke-width: 0.8"/>
      </g>
     </g>
     <g id="text_6">
      <!-- 40 pods, -->
      <g transform="translate(554.909545 199.741188) scale(0.12 -0.12)">
       <use xlink:href="#DejaVuSans-34"/>
       <use xlink:href="#DejaVuSans-30" x="63.623047"/>
       <use xlink:href="#DejaVuSans-20" x="127.246094"/>
       <use xlink:href="#DejaVuSans-70" x="159.033203"/>
       <use xlink:href="#DejaVuSans-6f" x="222.509766"/>
       <use xlink:href="#DejaVuSans-64" x="283.691406"/>
       <use xlink:href="#DejaVuSans-73" x="347.167969"/>
       <use xlink:href="#DejaVuSans-2c" x="399.267578"/>
      </g>
      <!-- 20 req/s -->
      <g transform="translate(556.252045 213.178563) scale(0.12 -0.12)">
       <use xlink:href="#DejaVuSans-32"/>
       <use xlink:href="#DejaVuSans-30" x="63.623047"/>
       <use xlink:href="#DejaVuSans-20" x="127.246094"/>
       <use xlink:href="#DejaVuSans-72" x="159.033203"/>
       <use xlink:href="#DejaVuSans-65" x="197.896484"/>
       <use xlink:href="#DejaVuSans-71" x="259.419922"/>
       <use xlink:href="#DejaVuSans-2f" x="322.896484"/>
       <use xlink:href="#DejaVuSans-73" x="356.587891"/>
      </g>
      <!-- linear -->
      <g transform="translate(563.801733 226.615938) scale(0.12 -0.12)">
       <use xlink:href="#DejaVuSans-6c"/>
       <use xlink:href="#DejaVuSans-69" x="27.783203"/>
       <use xlink:href="#DejaVuSans-6e" x="55.566406"/>
       <use xlink:href="#DejaVuSans-65" x="118.945312"/>
       <use xlink:href="#DejaVuSans-61" x="180.46875"/>
       <use xlink:href="#DejaVuSans-72" x="241.748047"/>
      </g>
     </g>
    </g>
    <g id="xtick_7">
     <g id="line2d_7">
      <g>
       <use xlink:href="#med46a7db73" x="672.409659" y="183.623063" style="stroke: #000000; stroke-width: 0.8"/>
      </g>
     </g>
     <g id="text_7">
      <!-- 20 pods, -->
      <g transform="translate(646.545909 199.741188) scale(0.12 -0.12)">
       <use xlink:href="#DejaVuSans-32"/>
       <use xlink:href="#DejaVuSans-30" x="63.623047"/>
       <use xlink:href="#DejaVuSans-20" x="127.246094"/>
       <use xlink:href="#DejaVuSans-70" x="159.033203"/>
       <use xlink:href="#DejaVuSans-6f" x="222.509766"/>
       <use xlink:href="#DejaVuSans-64" x="283.691406"/>
       <use xlink:href="#DejaVuSans-73" x="347.167969"/>
       <use xlink:href="#DejaVuSans-2c" x="399.267578"/>
      </g>
      <!-- 40 req/s -->
      <g transform="translate(647.888409 213.178563) scale(0.12 -0.12)">
       <use xlink:href="#DejaVuSans-34"/>
       <use xlink:href="#DejaVuSans-30" x="63.623047"/>
       <use xlink:href="#DejaVuSans-20" x="127.246094"/>
       <use xlink:href="#DejaVuSans-72" x="159.033203"/>
       <use xlink:href="#DejaVuSans-65" x="197.896484"/>
       <use xlink:href="#DejaVuSans-71" x="259.419922"/>
       <use xlink:href="#DejaVuSans-2f" x="322.896484"/>
       <use xlink:href="#DejaVuSans-73" x="356.587891"/>
      </g>
      <!-- linear -->
      <g transform="translate(655.438097 226.615938) scale(0.12 -0.12)">
       <use xlink:href="#DejaVuSans-6c"/>
       <use xlink:href="#DejaVuSans-69" x="27.783203"/>
       <use xlink:href="#DejaVuSans-6e" x="55.566406"/>
       <use xlink:href="#DejaVuSans-65" x="118.945312"/>
       <use xlink:href="#DejaVuSans-61" x="180.46875"/>
       <use xlink:href="#DejaVuSans-72" x="241.748047"/>
      </g>
     </g>
    </g>
    <g id="xtick_8">
     <g id="line2d_8">
      <g>
       <use xlink:href="#med46a7db73" x="764.046023" y="183.623063" style="stroke: #000000; stroke-width: 0.8"/>
      </g>
     </g>
     <g id="text_8">
      <!-- 40 pods, -->
      <g transform="translate(738.182273 199.741188) scale(0.12 -0.12)">
       <use xlink:href="#DejaVuSans-34"/>
       <use xlink:href="#DejaVuSans-30" x="63.623047"/>
       <use xlink:href="#DejaVuSans-20" x="127.246094"/>
       <use xlink:href="#DejaVuSans-70" x="159.033203"/>
       <use xlink:href="#DejaVuSans-6f" x="222.509766"/>
       <use xlink:href="#DejaVuSans-64" x="283.691406"/>
       <use xlink:href="#DejaVuSans-73" x="347.167969"/>
       <use xlink:href="#DejaVuSans-2c" x="399.267578"/>
      </g>
      <!-- 40 req/s -->
      <g transform="translate(739.524773 213.178563) scale(0.12 -0.12)">
       <use xlink:href="#DejaVuSans-34"/>
       <use xlink:href="#DejaVuSans-30" x="63.623047"/>
       <use xlink:href="#DejaVuSans-20" x="127.246094"/>
       <use xlink:href="#DejaVuSans-72" x="159.033203"/>
       <use xlink:href="#DejaVuSans-65" x="197.896484"/>
       <use xlink:href="#DejaVuSans-71" x="259.419922"/>
       <use xlink:href="#DejaVuSans-2f" x="322.896484"/>
       <use xlink:href="#DejaVuSans-73" x="356.587891"/>
      </g>
      <!-- linear -->
      <g transform="translate(747.07446 226.615938) scale(0.12 -0.12)">
       <use xlink:href="#DejaVuSans-6c"/>
       <use xlink:href="#DejaVuSans-69" x="27.783203"/>
       <use xlink:href="#DejaVuSans-6e" x="55.566406"/>
       <use xlink:href="#DejaVuSans-65" x="118.945312"/>
       <use xlink:href="#DejaVuSans-61" x="180.46875"/>
       <use xlink:href="#DejaVuSans-72" x="241.748047"/>
      </g>
     </g>
    </g>
   </g>
   <g id="matplotlib.axis_2">
    <g id="ytick_1">
     <g id="line2d_9">
      <path d="M 52.71875 183.623063 
L 833.91875 183.623063 
" clip-path="url(#p191a8307f4)" style="fill: none; stroke: #b0b0b0; stroke-width: 0.8; stroke-linecap: square"/>
     </g>
     <g id="line2d_10">
      <defs>
       <path id="md3853436ee" d="M 0 0 
L -3.5 0 
" style="stroke: #000000; stroke-width: 0.8"/>
      </defs>
      <g>
       <use xlink:href="#md3853436ee" x="52.71875" y="183.623063" style="stroke: #000000; stroke-width: 0.8"/>
      </g>
     </g>
     <g id="text_9">
      <!-- 0 -->
      <g transform="translate(38.08375 188.182125) scale(0.12 -0.12)">
       <use xlink:href="#DejaVuSans-30"/>
      </g>
     </g>
    </g>
    <g id="ytick_2">
     <g id="line2d_11">
      <path d="M 52.71875 159.071063 
L 833.91875 159.071063 
" clip-path="url(#p191a8307f4)" style="fill: none; stroke: #b0b0b0; stroke-width: 0.8; stroke-linecap: square"/>
     </g>
     <g id="line2d_12">
      <g>
       <use xlink:href="#md3853436ee" x="52.71875" y="159.071063" style="stroke: #000000; stroke-width: 0.8"/>
      </g>
     </g>
     <g id="text_10">
      <!-- 100 -->
      <g transform="translate(22.81375 163.630125) scale(0.12 -0.12)">
       <defs>
        <path id="DejaVuSans-31" d="M 794 531 
L 1825 531 
L 1825 4091 
L 703 3866 
L 703 4441 
L 1819 4666 
L 2450 4666 
L 2450 531 
L 3481 531 
L 3481 0 
L 794 0 
L 794 531 
z
" transform="scale(0.015625)"/>
       </defs>
       <use xlink:href="#DejaVuSans-31"/>
       <use xlink:href="#DejaVuSans-30" x="63.623047"/>
       <use xlink:href="#DejaVuSans-30" x="127.246094"/>
      </g>
     </g>
    </g>
    <g id="ytick_3">
     <g id="line2d_13">
      <path d="M 52.71875 134.519062 
L 833.91875 134.519062 
" clip-path="url(#p191a8307f4)" style="fill: none; stroke: #b0b0b0; stroke-width: 0.8; stroke-linecap: square"/>
     </g>
     <g id="line2d_14">
      <g>
       <use xlink:href="#md3853436ee" x="52.71875" y="134.519062" style="stroke: #000000; stroke-width: 0.8"/>
      </g>
     </g>
     <g id="text_11">
      <!-- 200 -->
      <g transform="translate(22.81375 139.078125) scale(0.12 -0.12)">
       <use xlink:href="#DejaVuSans-32"/>
       <use xlink:href="#DejaVuSans-30" x="63.623047"/>
       <use xlink:href="#DejaVuSans-30" x="127.246094"/>
      </g>
     </g>
    </g>
    <g id="ytick_4">
     <g id="line2d_15">
      <path d="M 52.71875 109.967062 
L 833.91875 109.967062 
" clip-path="url(#p191a8307f4)" style="fill: none; stroke: #b0b0b0; stroke-width: 0.8; stroke-linecap: square"/>
     </g>
     <g id="line2d_16">
      <g>
       <use xlink:href="#md3853436ee" x="52.71875" y="109.967062" style="stroke: #000000; stroke-width: 0.8"/>
      </g>
     </g>
     <g id="text_12">
      <!-- 300 -->
      <g transform="translate(22.81375 114.526125) scale(0.12 -0.12)">
       <defs>
        <path id="DejaVuSans-33" d="M 2597 2516 
Q 3050 2419 3304 2112 
Q 3559 1806 3559 1356 
Q 3559 666 3084 287 
Q 2609 -91 1734 -91 
Q 1441 -91 1130 -33 
Q 819 25 488 141 
L 488 750 
Q 750 597 1062 519 
Q 1375 441 1716 441 
Q 2309 441 2620 675 
Q 2931 909 2931 1356 
Q 2931 1769 2642 2001 
Q 2353 2234 1838 2234 
L 1294 2234 
L 1294 2753 
L 1863 2753 
Q 2328 2753 2575 2939 
Q 2822 3125 2822 3475 
Q 2822 3834 2567 4026 
Q 2313 4219 1838 4219 
Q 1578 4219 1281 4162 
Q 984 4106 628 3988 
L 628 4550 
Q 988 4650 1302 4700 
Q 1616 4750 1894 4750 
Q 2613 4750 3031 4423 
Q 3450 4097 3450 3541 
Q 3450 3153 3228 2886 
Q 3006 2619 2597 2516 
z
" transform="scale(0.015625)"/>
       </defs>
       <use xlink:href="#DejaVuSans-33"/>
       <use xlink:href="#DejaVuSans-30" x="63.623047"/>
       <use xlink:href="#DejaVuSans-30" x="127.246094"/>
      </g>
     </g>
    </g>
    <g id="ytick_5">
     <g id="line2d_17">
      <path d="M 52.71875 85.415062 
L 833.91875 85.415062 
" clip-path="url(#p191a8307f4)" style="fill: none; stroke: #b0b0b0; stroke-width: 0.8; stroke-linecap: square"/>
     </g>
     <g id="line2d_18">
      <g>
       <use xlink:href="#md3853436ee" x="52.71875" y="85.415062" style="stroke: #000000; stroke-width: 0.8"/>
      </g>
     </g>
     <g id="text_13">
      <!-- 400 -->
      <g transform="translate(22.81375 89.974125) scale(0.12 -0.12)">
       <use xlink:href="#DejaVuSans-34"/>
       <use xlink:href="#DejaVuSans-30" x="63.623047"/>
       <use xlink:href="#DejaVuSans-30" x="127.246094"/>
      </g>
     </g>
    </g>
    <g id="ytick_6">
     <g id="line2d_19">
      <path d="M 52.71875 60.863062 
L 833.91875 60.863062 
" clip-path="url(#p191a8307f4)" style="fill: none; stroke: #b0b0b0; stroke-width: 0.8; stroke-linecap: square"/>
     </g>
     <g id="line2d_20">
      <g>
       <use xlink:href="#md3853436ee" x="52.71875" y="60.863062" style="stroke: #000000; stroke-width: 0.8"/>
      </g>
     </g>
     <g id="text_14">
      <!-- 500 -->
      <g transform="translate(22.81375 65.422125) scale(0.12 -0.12)">
       <defs>
        <path id="DejaVuSans-35" d="M 691 4666 
L 3169 4666 
L 3169 4134 
L 1269 4134 
L 1269 2991 
Q 1406 3038 1543 3061 
Q 1681 3084 1819 3084 
Q 2600 3084 3056 2656 
Q 3513 2228 3513 1497 
Q 3513 744 3044 326 
Q 2575 -91 1722 -91 
Q 1428 -91 1123 -41 
Q 819 9 494 109 
L 494 744 
Q 775 591 1075 516 
Q 1375 441 1709 441 
Q 2250 441 2565 725 
Q 2881 1009 2881 1497 
Q 2881 1984 2565 2268 
Q 2250 2553 1709 2553 
Q 1456 2553 1204 2497 
Q 953 2441 691 2322 
L 691 4666 
z
" transform="scale(0.015625)"/>
       </defs>
       <use xlink:href="#DejaVuSans-35"/>
       <use xlink:href="#DejaVuSans-30" x="63.623047"/>
       <use xlink:href="#DejaVuSans-30" x="127.246094"/>
      </g>
     </g>
    </g>
    <g id="ytick_7">
     <g id="line2d_21">
      <path d="M 52.71875 36.311062 
L 833.91875 36.311062 
" clip-path="url(#p191a8307f4)" style="fill: none; stroke: #b0b0b0; stroke-width: 0.8; stroke-linecap: square"/>
     </g>
     <g id="line2d_22">
      <g>
       <use xlink:href="#md3853436ee" x="52.71875" y="36.311062" style="stroke: #000000; stroke-width: 0.8"/>
      </g>
     </g>
     <g id="text_15">
      <!-- 600 -->
      <g transform="translate(22.81375 40.870125) scale(0.12 -0.12)">
       <defs>
        <path id="DejaVuSans-36" d="M 2113 2584 
Q 1688 2584 1439 2293 
Q 1191 2003 1191 1497 
Q 1191 994 1439 701 
Q 1688 409 2113 409 
Q 2538 409 2786 701 
Q 3034 994 3034 1497 
Q 3034 2003 2786 2293 
Q 2538 2584 2113 2584 
z
M 3366 4563 
L 3366 3988 
Q 3128 4100 2886 4159 
Q 2644 4219 2406 4219 
Q 1781 4219 1451 3797 
Q 1122 3375 1075 2522 
Q 1259 2794 1537 2939 
Q 1816 3084 2150 3084 
Q 2853 3084 3261 2657 
Q 3669 2231 3669 1497 
Q 3669 778 3244 343 
Q 2819 -91 2113 -91 
Q 1303 -91 875 529 
Q 447 1150 447 2328 
Q 447 3434 972 4092 
Q 1497 4750 2381 4750 
Q 2619 4750 2861 4703 
Q 3103 4656 3366 4563 
z
" transform="scale(0.015625)"/>
       </defs>
       <use xlink:href="#DejaVuSans-36"/>
       <use xlink:href="#DejaVuSans-30" x="63.623047"/>
       <use xlink:href="#DejaVuSans-30" x="127.246094"/>
      </g>
     </g>
    </g>
    <g id="ytick_8">
     <g id="line2d_23">
      <path d="M 52.71875 11.759062 
L 833.91875 11.759062 
" clip-path="url(#p191a8307f4)" style="fill: none; stroke: #b0b0b0; stroke-width: 0.8; stroke-linecap: square"/>
     </g>
     <g id="line2d_24">
      <g>
       <use xlink:href="#md3853436ee" x="52.71875" y="11.759062" style="stroke: #000000; stroke-width: 0.8"/>
      </g>
     </g>
     <g id="text_16">
      <!-- 700 -->
      <g transform="translate(22.81375 16.318125) scale(0.12 -0.12)">
       <defs>
        <path id="DejaVuSans-37" d="M 525 4666 
L 3525 4666 
L 3525 4397 
L 1831 0 
L 1172 0 
L 2766 4134 
L 525 4134 
L 525 4666 
z
" transform="scale(0.015625)"/>
       </defs>
       <use xlink:href="#DejaVuSans-37"/>
       <use xlink:href="#DejaVuSans-30" x="63.623047"/>
       <use xlink:href="#DejaVuSans-30" x="127.246094"/>
      </g>
     </g>
    </g>
    <g id="text_17">
     <!-- Erro Médio Absoluto -->
     <g transform="translate(16.318125 157.8795) rotate(-90) scale(0.12 -0.12)">
      <defs>
       <path id="DejaVuSans-45" d="M 628 4666 
L 3578 4666 
L 3578 4134 
L 1259 4134 
L 1259 2753 
L 3481 2753 
L 3481 2222 
L 1259 2222 
L 1259 531 
L 3634 531 
L 3634 0 
L 628 0 
L 628 4666 
z
" transform="scale(0.015625)"/>
       <path id="DejaVuSans-4d" d="M 628 4666 
L 1569 4666 
L 2759 1491 
L 3956 4666 
L 4897 4666 
L 4897 0 
L 4281 0 
L 4281 4097 
L 3078 897 
L 2444 897 
L 1241 4097 
L 1241 0 
L 628 0 
L 628 4666 
z
" transform="scale(0.015625)"/>
       <path id="DejaVuSans-e9" d="M 3597 1894 
L 3597 1613 
L 953 1613 
Q 991 1019 1311 708 
Q 1631 397 2203 397 
Q 2534 397 2845 478 
Q 3156 559 3463 722 
L 3463 178 
Q 3153 47 2828 -22 
Q 2503 -91 2169 -91 
Q 1331 -91 842 396 
Q 353 884 353 1716 
Q 353 2575 817 3079 
Q 1281 3584 2069 3584 
Q 2775 3584 3186 3129 
Q 3597 2675 3597 1894 
z
M 3022 2063 
Q 3016 2534 2758 2815 
Q 2500 3097 2075 3097 
Q 1594 3097 1305 2825 
Q 1016 2553 972 2059 
L 3022 2063 
z
M 2466 5119 
L 3088 5119 
L 2070 3944 
L 1591 3944 
L 2466 5119 
z
" transform="scale(0.015625)"/>
       <path id="DejaVuSans-41" d="M 2188 4044 
L 1331 1722 
L 3047 1722 
L 2188 4044 
z
M 1831 4666 
L 2547 4666 
L 4325 0 
L 3669 0 
L 3244 1197 
L 1141 1197 
L 716 0 
L 50 0 
L 1831 4666 
z
" transform="scale(0.015625)"/>
       <path id="DejaVuSans-62" d="M 3116 1747 
Q 3116 2381 2855 2742 
Q 2594 3103 2138 3103 
Q 1681 3103 1420 2742 
Q 1159 2381 1159 1747 
Q 1159 1113 1420 752 
Q 1681 391 2138 391 
Q 2594 391 2855 752 
Q 3116 1113 3116 1747 
z
M 1159 2969 
Q 1341 3281 1617 3432 
Q 1894 3584 2278 3584 
Q 2916 3584 3314 3078 
Q 3713 2572 3713 1747 
Q 3713 922 3314 415 
Q 2916 -91 2278 -91 
Q 1894 -91 1617 61 
Q 1341 213 1159 525 
L 1159 0 
L 581 0 
L 581 4863 
L 1159 4863 
L 1159 2969 
z
" transform="scale(0.015625)"/>
       <path id="DejaVuSans-75" d="M 544 1381 
L 544 3500 
L 1119 3500 
L 1119 1403 
Q 1119 906 1312 657 
Q 1506 409 1894 409 
Q 2359 409 2629 706 
Q 2900 1003 2900 1516 
L 2900 3500 
L 3475 3500 
L 3475 0 
L 2900 0 
L 2900 538 
Q 2691 219 2414 64 
Q 2138 -91 1772 -91 
Q 1169 -91 856 284 
Q 544 659 544 1381 
z
M 1991 3584 
L 1991 3584 
z
" transform="scale(0.015625)"/>
      </defs>
      <use xlink:href="#DejaVuSans-45"/>
      <use xlink:href="#DejaVuSans-72" x="63.183594"/>
      <use xlink:href="#DejaVuSans-72" x="102.546875"/>
      <use xlink:href="#DejaVuSans-6f" x="141.410156"/>
      <use xlink:href="#DejaVuSans-20" x="202.591797"/>
      <use xlink:href="#DejaVuSans-4d" x="234.378906"/>
      <use xlink:href="#DejaVuSans-e9" x="320.658203"/>
      <use xlink:href="#DejaVuSans-64" x="382.181641"/>
      <use xlink:href="#DejaVuSans-69" x="445.658203"/>
      <use xlink:href="#DejaVuSans-6f" x="473.441406"/>
      <use xlink:href="#DejaVuSans-20" x="534.623047"/>
      <use xlink:href="#DejaVuSans-41" x="566.410156"/>
      <use xlink:href="#DejaVuSans-62" x="634.818359"/>
      <use xlink:href="#DejaVuSans-73" x="698.294922"/>
      <use xlink:href="#DejaVuSans-6f" x="750.394531"/>
      <use xlink:href="#DejaVuSans-6c" x="811.576172"/>
      <use xlink:href="#DejaVuSans-75" x="839.359375"/>
      <use xlink:href="#DejaVuSans-74" x="902.738281"/>
      <use xlink:href="#DejaVuSans-6f" x="941.947266"/>
     </g>
    </g>
   </g>
   <g id="patch_3">
    <path d="M 88.227841 183.623063 
L 111.136932 183.623063 
L 111.136932 84.128538 
L 88.227841 84.128538 
z
" clip-path="url(#p191a8307f4)" style="fill: #1f77b4"/>
   </g>
   <g id="patch_4">
    <path d="M 179.864205 183.623063 
L 202.773295 183.623063 
L 202.773295 137.843403 
L 179.864205 137.843403 
z
" clip-path="url(#p191a8307f4)" style="fill: #1f77b4"/>
   </g>
   <g id="patch_5">
    <path d="M 271.500568 183.623063 
L 294.409659 183.623063 
L 294.409659 23.740438 
L 271.500568 23.740438 
z
" clip-path="url(#p191a8307f4)" style="fill: #1f77b4"/>
   </g>
   <g id="patch_6">
    <path d="M 363.136932 183.623063 
L 386.046023 183.623063 
L 386.046023 111.324788 
L 363.136932 111.324788 
z
" clip-path="url(#p191a8307f4)" style="fill: #1f77b4"/>
   </g>
   <g id="patch_7">
    <path d="M 454.773295 183.623063 
L 477.682386 183.623063 
L 477.682386 114.310311 
L 454.773295 114.310311 
z
" clip-path="url(#p191a8307f4)" style="fill: #1f77b4"/>
   </g>
   <g id="patch_8">
    <path d="M 546.409659 183.623063 
L 569.31875 183.623063 
L 569.31875 150.460676 
L 546.409659 150.460676 
z
" clip-path="url(#p191a8307f4)" style="fill: #1f77b4"/>
   </g>
   <g id="patch_9">
    <path d="M 638.046023 183.623063 
L 660.955114 183.623063 
L 660.955114 65.331526 
L 638.046023 65.331526 
z
" clip-path="url(#p191a8307f4)" style="fill: #1f77b4"/>
   </g>
   <g id="patch_10">
    <path d="M 729.682386 183.623063 
L 752.591477 183.623063 
L 752.591477 131.484435 
L 729.682386 131.484435 
z
" clip-path="url(#p191a8307f4)" style="fill: #1f77b4"/>
   </g>
   <g id="patch_11">
    <path d="M 111.136932 183.623063 
L 134.046023 183.623063 
L 134.046023 134.310371 
L 111.136932 134.310371 
z
" clip-path="url(#p191a8307f4)" style="fill: #ff7f0e"/>
   </g>
   <g id="patch_12">
    <path d="M 202.773295 183.623063 
L 225.682386 183.623063 
L 225.682386 144.337407 
L 202.773295 144.337407 
z
" clip-path="url(#p191a8307f4)" style="fill: #ff7f0e"/>
   </g>
   <g id="patch_13">
    <path d="M 294.409659 183.623063 
L 317.31875 183.623063 
L 317.31875 118.304922 
L 294.409659 118.304922 
z
" clip-path="url(#p191a8307f4)" style="fill: #ff7f0e"/>
   </g>
   <g id="patch_14">
    <path d="M 386.046023 183.623063 
L 408.955114 183.623063 
L 408.955114 129.854182 
L 386.046023 129.854182 
z
" clip-path="url(#p191a8307f4)" style="fill: #ff7f0e"/>
   </g>
   <g id="patch_15">
    <path d="M 477.682386 183.623063 
L 500.591477 183.623063 
L 500.591477 154.909498 
L 477.682386 154.909498 
z
" clip-path="url(#p191a8307f4)" style="fill: #ff7f0e"/>
   </g>
   <g id="patch_16">
    <path d="M 569.31875 183.623063 
L 592.227841 183.623063 
L 592.227841 151.899423 
L 569.31875 151.899423 
z
" clip-path="url(#p191a8307f4)" style="fill: #ff7f0e"/>
   </g>
   <g id="patch_17">
    <path d="M 660.955114 183.623063 
L 683.864205 183.623063 
L 683.864205 143.3897 
L 660.955114 143.3897 
z
" clip-path="url(#p191a8307f4)" style="fill: #ff7f0e"/>
   </g>
   <g id="patch_18">
    <path d="M 752.591477 183.623063 
L 775.500568 183.623063 
L 775.500568 140.657062 
L 752.591477 140.657062 
z
" clip-path="url(#p191a8307f4)" style="fill: #ff7f0e"/>
   </g>
   <g id="patch_19">
    <path d="M 134.046023 183.623063 
L 156.955114 183.623063 
L 156.955114 130.961478 
L 134.046023 130.961478 
z
" clip-path="url(#p191a8307f4)" style="fill: #2ca02c"/>
   </g>
   <g id="patch_20">
    <path d="M 225.682386 183.623063 
L 248.591477 183.623063 
L 248.591477 150.190604 
L 225.682386 150.190604 
z
" clip-path="url(#p191a8307f4)" style="fill: #2ca02c"/>
   </g>
   <g id="patch_21">
    <path d="M 317.31875 183.623063 
L 340.227841 183.623063 
L 340.227841 117.433326 
L 317.31875 117.433326 
z
" clip-path="url(#p191a8307f4)" style="fill: #2ca02c"/>
   </g>
   <g id="patch_22">
    <path d="M 408.955114 183.623063 
L 431.864205 183.623063 
L 431.864205 134.099223 
L 408.955114 134.099223 
z
" clip-path="url(#p191a8307f4)" style="fill: #2ca02c"/>
   </g>
   <g id="patch_23">
    <path d="M 500.591477 183.623063 
L 523.500568 183.623063 
L 523.500568 153.178583 
L 500.591477 153.178583 
z
" clip-path="url(#p191a8307f4)" style="fill: #2ca02c"/>
   </g>
   <g id="patch_24">
    <path d="M 592.227841 183.623063 
L 615.136932 183.623063 
L 615.136932 158.174914 
L 592.227841 158.174914 
z
" clip-path="url(#p191a8307f4)" style="fill: #2ca02c"/>
   </g>
   <g id="patch_25">
    <path d="M 683.864205 183.623063 
L 706.773295 183.623063 
L 706.773295 137.482489 
L 683.864205 137.482489 
z
" clip-path="url(#p191a8307f4)" style="fill: #2ca02c"/>
   </g>
   <g id="patch_26">
    <path d="M 775.500568 183.623063 
L 798.409659 183.623063 
L 798.409659 144.354594 
L 775.500568 144.354594 
z
" clip-path="url(#p191a8307f4)" style="fill: #2ca02c"/>
   </g>
   <g id="LineCollection_1">
    <path d="M 99.682386 87.988112 
L 99.682386 80.268963 
" clip-path="url(#p191a8307f4)" style="fill: none; stroke: #000000; stroke-width: 1.5"/>
    <path d="M 191.31875 141.037619 
L 191.31875 134.649188 
" clip-path="url(#p191a8307f4)" style="fill: none; stroke: #000000; stroke-width: 1.5"/>
    <path d="M 282.955114 28.903724 
L 282.955114 18.577153 
" clip-path="url(#p191a8307f4)" style="fill: none; stroke: #000000; stroke-width: 1.5"/>
    <path d="M 374.591477 114.973215 
L 374.591477 107.676361 
" clip-path="url(#p191a8307f4)" style="fill: none; stroke: #000000; stroke-width: 1.5"/>
    <path d="M 466.227841 118.921177 
L 466.227841 109.699446 
" clip-path="url(#p191a8307f4)" style="fill: none; stroke: #000000; stroke-width: 1.5"/>
    <path d="M 557.864205 153.02636 
L 557.864205 147.894992 
" clip-path="url(#p191a8307f4)" style="fill: none; stroke: #000000; stroke-width: 1.5"/>
    <path d="M 649.500568 70.060242 
L 649.500568 60.602811 
" clip-path="url(#p191a8307f4)" style="fill: none; stroke: #000000; stroke-width: 1.5"/>
    <path d="M 741.136932 134.671285 
L 741.136932 128.297586 
" clip-path="url(#p191a8307f4)" style="fill: none; stroke: #000000; stroke-width: 1.5"/>
   </g>
   <g id="line2d_25">
    <defs>
     <path id="m5658e0a72c" d="M 5 0 
L -5 -0 
" style="stroke: #000000"/>
    </defs>
    <g clip-path="url(#p191a8307f4)">
     <use xlink:href="#m5658e0a72c" x="99.682386" y="87.988112" style="stroke: #000000"/>
     <use xlink:href="#m5658e0a72c" x="191.31875" y="141.037619" style="stroke: #000000"/>
     <use xlink:href="#m5658e0a72c" x="282.955114" y="28.903724" style="stroke: #000000"/>
     <use xlink:href="#m5658e0a72c" x="374.591477" y="114.973215" style="stroke: #000000"/>
     <use xlink:href="#m5658e0a72c" x="466.227841" y="118.921177" style="stroke: #000000"/>
     <use xlink:href="#m5658e0a72c" x="557.864205" y="153.02636" style="stroke: #000000"/>
     <use xlink:href="#m5658e0a72c" x="649.500568" y="70.060242" style="stroke: #000000"/>
     <use xlink:href="#m5658e0a72c" x="741.136932" y="134.671285" style="stroke: #000000"/>
    </g>
   </g>
   <g id="line2d_26">
    <g clip-path="url(#p191a8307f4)">
     <use xlink:href="#m5658e0a72c" x="99.682386" y="80.268963" style="stroke: #000000"/>
     <use xlink:href="#m5658e0a72c" x="191.31875" y="134.649188" style="stroke: #000000"/>
     <use xlink:href="#m5658e0a72c" x="282.955114" y="18.577153" style="stroke: #000000"/>
     <use xlink:href="#m5658e0a72c" x="374.591477" y="107.676361" style="stroke: #000000"/>
     <use xlink:href="#m5658e0a72c" x="466.227841" y="109.699446" style="stroke: #000000"/>
     <use xlink:href="#m5658e0a72c" x="557.864205" y="147.894992" style="stroke: #000000"/>
     <use xlink:href="#m5658e0a72c" x="649.500568" y="60.602811" style="stroke: #000000"/>
     <use xlink:href="#m5658e0a72c" x="741.136932" y="128.297586" style="stroke: #000000"/>
    </g>
   </g>
   <g id="LineCollection_2">
    <path d="M 122.591477 147.772232 
L 122.591477 120.848509 
" clip-path="url(#p191a8307f4)" style="fill: none; stroke: #000000; stroke-width: 1.5"/>
    <path d="M 214.227841 159.274844 
L 214.227841 129.39997 
" clip-path="url(#p191a8307f4)" style="fill: none; stroke: #000000; stroke-width: 1.5"/>
    <path d="M 305.864205 138.626612 
L 305.864205 97.983231 
" clip-path="url(#p191a8307f4)" style="fill: none; stroke: #000000; stroke-width: 1.5"/>
    <path d="M 397.500568 144.145902 
L 397.500568 115.562463 
" clip-path="url(#p191a8307f4)" style="fill: none; stroke: #000000; stroke-width: 1.5"/>
    <path d="M 489.136932 162.476425 
L 489.136932 147.342572 
" clip-path="url(#p191a8307f4)" style="fill: none; stroke: #000000; stroke-width: 1.5"/>
    <path d="M 580.773295 159.306762 
L 580.773295 144.492085 
" clip-path="url(#p191a8307f4)" style="fill: none; stroke: #000000; stroke-width: 1.5"/>
    <path d="M 672.409659 159.910741 
L 672.409659 126.868659 
" clip-path="url(#p191a8307f4)" style="fill: none; stroke: #000000; stroke-width: 1.5"/>
    <path d="M 764.046023 163.252268 
L 764.046023 118.061857 
" clip-path="url(#p191a8307f4)" style="fill: none; stroke: #000000; stroke-width: 1.5"/>
   </g>
   <g id="line2d_27">
    <g clip-path="url(#p191a8307f4)">
     <use xlink:href="#m5658e0a72c" x="122.591477" y="147.772232" style="stroke: #000000"/>
     <use xlink:href="#m5658e0a72c" x="214.227841" y="159.274844" style="stroke: #000000"/>
     <use xlink:href="#m5658e0a72c" x="305.864205" y="138.626612" style="stroke: #000000"/>
     <use xlink:href="#m5658e0a72c" x="397.500568" y="144.145902" style="stroke: #000000"/>
     <use xlink:href="#m5658e0a72c" x="489.136932" y="162.476425" style="stroke: #000000"/>
     <use xlink:href="#m5658e0a72c" x="580.773295" y="159.306762" style="stroke: #000000"/>
     <use xlink:href="#m5658e0a72c" x="672.409659" y="159.910741" style="stroke: #000000"/>
     <use xlink:href="#m5658e0a72c" x="764.046023" y="163.252268" style="stroke: #000000"/>
    </g>
   </g>
   <g id="line2d_28">
    <g clip-path="url(#p191a8307f4)">
     <use xlink:href="#m5658e0a72c" x="122.591477" y="120.848509" style="stroke: #000000"/>
     <use xlink:href="#m5658e0a72c" x="214.227841" y="129.39997" style="stroke: #000000"/>
     <use xlink:href="#m5658e0a72c" x="305.864205" y="97.983231" style="stroke: #000000"/>
     <use xlink:href="#m5658e0a72c" x="397.500568" y="115.562463" style="stroke: #000000"/>
     <use xlink:href="#m5658e0a72c" x="489.136932" y="147.342572" style="stroke: #000000"/>
     <use xlink:href="#m5658e0a72c" x="580.773295" y="144.492085" style="stroke: #000000"/>
     <use xlink:href="#m5658e0a72c" x="672.409659" y="126.868659" style="stroke: #000000"/>
     <use xlink:href="#m5658e0a72c" x="764.046023" y="118.061857" style="stroke: #000000"/>
    </g>
   </g>
   <g id="LineCollection_3">
    <path d="M 145.500568 144.771978 
L 145.500568 117.150978 
" clip-path="url(#p191a8307f4)" style="fill: none; stroke: #000000; stroke-width: 1.5"/>
    <path d="M 237.136932 158.140542 
L 237.136932 142.240667 
" clip-path="url(#p191a8307f4)" style="fill: none; stroke: #000000; stroke-width: 1.5"/>
    <path d="M 328.773295 126.149286 
L 328.773295 108.717366 
" clip-path="url(#p191a8307f4)" style="fill: none; stroke: #000000; stroke-width: 1.5"/>
    <path d="M 420.409659 145.118161 
L 420.409659 123.080286 
" clip-path="url(#p191a8307f4)" style="fill: none; stroke: #000000; stroke-width: 1.5"/>
    <path d="M 512.046023 157.723158 
L 512.046023 148.634007 
" clip-path="url(#p191a8307f4)" style="fill: none; stroke: #000000; stroke-width: 1.5"/>
    <path d="M 603.682386 163.475691 
L 603.682386 152.874138 
" clip-path="url(#p191a8307f4)" style="fill: none; stroke: #000000; stroke-width: 1.5"/>
    <path d="M 695.31875 145.611656 
L 695.31875 129.353322 
" clip-path="url(#p191a8307f4)" style="fill: none; stroke: #000000; stroke-width: 1.5"/>
    <path d="M 786.955114 159.321493 
L 786.955114 129.387695 
" clip-path="url(#p191a8307f4)" style="fill: none; stroke: #000000; stroke-width: 1.5"/>
   </g>
   <g id="line2d_29">
    <g clip-path="url(#p191a8307f4)">
     <use xlink:href="#m5658e0a72c" x="145.500568" y="144.771978" style="stroke: #000000"/>
     <use xlink:href="#m5658e0a72c" x="237.136932" y="158.140542" style="stroke: #000000"/>
     <use xlink:href="#m5658e0a72c" x="328.773295" y="126.149286" style="stroke: #000000"/>
     <use xlink:href="#m5658e0a72c" x="420.409659" y="145.118161" style="stroke: #000000"/>
     <use xlink:href="#m5658e0a72c" x="512.046023" y="157.723158" style="stroke: #000000"/>
     <use xlink:href="#m5658e0a72c" x="603.682386" y="163.475691" style="stroke: #000000"/>
     <use xlink:href="#m5658e0a72c" x="695.31875" y="145.611656" style="stroke: #000000"/>
     <use xlink:href="#m5658e0a72c" x="786.955114" y="159.321493" style="stroke: #000000"/>
    </g>
   </g>
   <g id="line2d_30">
    <g clip-path="url(#p191a8307f4)">
     <use xlink:href="#m5658e0a72c" x="145.500568" y="117.150978" style="stroke: #000000"/>
     <use xlink:href="#m5658e0a72c" x="237.136932" y="142.240667" style="stroke: #000000"/>
     <use xlink:href="#m5658e0a72c" x="328.773295" y="108.717366" style="stroke: #000000"/>
     <use xlink:href="#m5658e0a72c" x="420.409659" y="123.080286" style="stroke: #000000"/>
     <use xlink:href="#m5658e0a72c" x="512.046023" y="148.634007" style="stroke: #000000"/>
     <use xlink:href="#m5658e0a72c" x="603.682386" y="152.874138" style="stroke: #000000"/>
     <use xlink:href="#m5658e0a72c" x="695.31875" y="129.353322" style="stroke: #000000"/>
     <use xlink:href="#m5658e0a72c" x="786.955114" y="129.387695" style="stroke: #000000"/>
    </g>
   </g>
   <g id="patch_27">
    <path d="M 52.71875 183.623063 
L 52.71875 11.759062 
" style="fill: none; stroke: #000000; stroke-width: 0.8; stroke-linejoin: miter; stroke-linecap: square"/>
   </g>
   <g id="patch_28">
    <path d="M 833.91875 183.623063 
L 833.91875 11.759062 
" style="fill: none; stroke: #000000; stroke-width: 0.8; stroke-linejoin: miter; stroke-linecap: square"/>
   </g>
   <g id="patch_29">
    <path d="M 52.71875 183.623063 
L 833.91875 183.623063 
" style="fill: none; stroke: #000000; stroke-width: 0.8; stroke-linejoin: miter; stroke-linecap: square"/>
   </g>
   <g id="patch_30">
    <path d="M 52.71875 11.759062 
L 833.91875 11.759062 
" style="fill: none; stroke: #000000; stroke-width: 0.8; stroke-linejoin: miter; stroke-linecap: square"/>
   </g>
   <g id="legend_1">
    <g id="patch_31">
     <path d="M 692.834375 74.200312 
L 825.51875 74.200312 
Q 827.91875 74.200312 827.91875 71.800312 
L 827.91875 20.159062 
Q 827.91875 17.759062 825.51875 17.759062 
L 692.834375 17.759062 
Q 690.434375 17.759062 690.434375 20.159062 
L 690.434375 71.800312 
Q 690.434375 74.200312 692.834375 74.200312 
z
" style="fill: #ffffff; opacity: 0.8; stroke: #cccccc; stroke-linejoin: miter"/>
    </g>
    <g id="patch_32">
     <path d="M 695.234375 31.677187 
L 719.234375 31.677187 
L 719.234375 23.277187 
L 695.234375 23.277187 
z
" style="fill: #1f77b4; stroke: #1f77b4; stroke-linejoin: miter"/>
    </g>
    <g id="text_18">
     <!-- Kube-Scheduler -->
     <g transform="translate(728.834375 31.677187) scale(0.12 -0.12)">
      <defs>
       <path id="DejaVuSans-4b" d="M 628 4666 
L 1259 4666 
L 1259 2694 
L 3353 4666 
L 4166 4666 
L 1850 2491 
L 4331 0 
L 3500 0 
L 1259 2247 
L 1259 0 
L 628 0 
L 628 4666 
z
" transform="scale(0.015625)"/>
       <path id="DejaVuSans-2d" d="M 313 2009 
L 1997 2009 
L 1997 1497 
L 313 1497 
L 313 2009 
z
" transform="scale(0.015625)"/>
       <path id="DejaVuSans-53" d="M 3425 4513 
L 3425 3897 
Q 3066 4069 2747 4153 
Q 2428 4238 2131 4238 
Q 1616 4238 1336 4038 
Q 1056 3838 1056 3469 
Q 1056 3159 1242 3001 
Q 1428 2844 1947 2747 
L 2328 2669 
Q 3034 2534 3370 2195 
Q 3706 1856 3706 1288 
Q 3706 609 3251 259 
Q 2797 -91 1919 -91 
Q 1588 -91 1214 -16 
Q 841 59 441 206 
L 441 856 
Q 825 641 1194 531 
Q 1563 422 1919 422 
Q 2459 422 2753 634 
Q 3047 847 3047 1241 
Q 3047 1584 2836 1778 
Q 2625 1972 2144 2069 
L 1759 2144 
Q 1053 2284 737 2584 
Q 422 2884 422 3419 
Q 422 4038 858 4394 
Q 1294 4750 2059 4750 
Q 2388 4750 2728 4690 
Q 3069 4631 3425 4513 
z
" transform="scale(0.015625)"/>
       <path id="DejaVuSans-68" d="M 3513 2113 
L 3513 0 
L 2938 0 
L 2938 2094 
Q 2938 2591 2744 2837 
Q 2550 3084 2163 3084 
Q 1697 3084 1428 2787 
Q 1159 2491 1159 1978 
L 1159 0 
L 581 0 
L 581 4863 
L 1159 4863 
L 1159 2956 
Q 1366 3272 1645 3428 
Q 1925 3584 2291 3584 
Q 2894 3584 3203 3211 
Q 3513 2838 3513 2113 
z
" transform="scale(0.015625)"/>
      </defs>
      <use xlink:href="#DejaVuSans-4b"/>
      <use xlink:href="#DejaVuSans-75" x="60.576172"/>
      <use xlink:href="#DejaVuSans-62" x="123.955078"/>
      <use xlink:href="#DejaVuSans-65" x="187.431641"/>
      <use xlink:href="#DejaVuSans-2d" x="248.955078"/>
      <use xlink:href="#DejaVuSans-53" x="285.039062"/>
      <use xlink:href="#DejaVuSans-63" x="348.515625"/>
      <use xlink:href="#DejaVuSans-68" x="403.496094"/>
      <use xlink:href="#DejaVuSans-65" x="466.875"/>
      <use xlink:href="#DejaVuSans-64" x="528.398438"/>
      <use xlink:href="#DejaVuSans-75" x="591.875"/>
      <use xlink:href="#DejaVuSans-6c" x="655.253906"/>
      <use xlink:href="#DejaVuSans-65" x="683.037109"/>
      <use xlink:href="#DejaVuSans-72" x="744.560547"/>
     </g>
    </g>
    <g id="patch_33">
     <path d="M 695.234375 49.290937 
L 719.234375 49.290937 
L 719.234375 40.890937 
L 695.234375 40.890937 
z
" style="fill: #ff7f0e; stroke: #ff7f0e; stroke-linejoin: miter"/>
    </g>
    <g id="text_19">
     <!-- KSE-GreedyLB -->
     <g transform="translate(728.834375 49.290937) scale(0.12 -0.12)">
      <defs>
       <path id="DejaVuSans-47" d="M 3809 666 
L 3809 1919 
L 2778 1919 
L 2778 2438 
L 4434 2438 
L 4434 434 
Q 4069 175 3628 42 
Q 3188 -91 2688 -91 
Q 1594 -91 976 548 
Q 359 1188 359 2328 
Q 359 3472 976 4111 
Q 1594 4750 2688 4750 
Q 3144 4750 3555 4637 
Q 3966 4525 4313 4306 
L 4313 3634 
Q 3963 3931 3569 4081 
Q 3175 4231 2741 4231 
Q 1884 4231 1454 3753 
Q 1025 3275 1025 2328 
Q 1025 1384 1454 906 
Q 1884 428 2741 428 
Q 3075 428 3337 486 
Q 3600 544 3809 666 
z
" transform="scale(0.015625)"/>
       <path id="DejaVuSans-79" d="M 2059 -325 
Q 1816 -950 1584 -1140 
Q 1353 -1331 966 -1331 
L 506 -1331 
L 506 -850 
L 844 -850 
Q 1081 -850 1212 -737 
Q 1344 -625 1503 -206 
L 1606 56 
L 191 3500 
L 800 3500 
L 1894 763 
L 2988 3500 
L 3597 3500 
L 2059 -325 
z
" transform="scale(0.015625)"/>
       <path id="DejaVuSans-4c" d="M 628 4666 
L 1259 4666 
L 1259 531 
L 3531 531 
L 3531 0 
L 628 0 
L 628 4666 
z
" transform="scale(0.015625)"/>
       <path id="DejaVuSans-42" d="M 1259 2228 
L 1259 519 
L 2272 519 
Q 2781 519 3026 730 
Q 3272 941 3272 1375 
Q 3272 1813 3026 2020 
Q 2781 2228 2272 2228 
L 1259 2228 
z
M 1259 4147 
L 1259 2741 
L 2194 2741 
Q 2656 2741 2882 2914 
Q 3109 3088 3109 3444 
Q 3109 3797 2882 3972 
Q 2656 4147 2194 4147 
L 1259 4147 
z
M 628 4666 
L 2241 4666 
Q 2963 4666 3353 4366 
Q 3744 4066 3744 3513 
Q 3744 3084 3544 2831 
Q 3344 2578 2956 2516 
Q 3422 2416 3680 2098 
Q 3938 1781 3938 1306 
Q 3938 681 3513 340 
Q 3088 0 2303 0 
L 628 0 
L 628 4666 
z
" transform="scale(0.015625)"/>
      </defs>
      <use xlink:href="#DejaVuSans-4b"/>
      <use xlink:href="#DejaVuSans-53" x="65.576172"/>
      <use xlink:href="#DejaVuSans-45" x="129.052734"/>
      <use xlink:href="#DejaVuSans-2d" x="192.236328"/>
      <use xlink:href="#DejaVuSans-47" x="231.945312"/>
      <use xlink:href="#DejaVuSans-72" x="309.435547"/>
      <use xlink:href="#DejaVuSans-65" x="348.298828"/>
      <use xlink:href="#DejaVuSans-65" x="409.822266"/>
      <use xlink:href="#DejaVuSans-64" x="471.345703"/>
      <use xlink:href="#DejaVuSans-79" x="534.822266"/>
      <use xlink:href="#DejaVuSans-4c" x="594.001953"/>
      <use xlink:href="#DejaVuSans-42" x="649.714844"/>
     </g>
    </g>
    <g id="patch_34">
     <path d="M 695.234375 66.904687 
L 719.234375 66.904687 
L 719.234375 58.504687 
L 695.234375 58.504687 
z
" style="fill: #2ca02c; stroke: #2ca02c; stroke-linejoin: miter"/>
    </g>
    <g id="text_20">
     <!-- KSE-RefineLB -->
     <g transform="translate(728.834375 66.904687) scale(0.12 -0.12)">
      <defs>
       <path id="DejaVuSans-52" d="M 2841 2188 
Q 3044 2119 3236 1894 
Q 3428 1669 3622 1275 
L 4263 0 
L 3584 0 
L 2988 1197 
Q 2756 1666 2539 1819 
Q 2322 1972 1947 1972 
L 1259 1972 
L 1259 0 
L 628 0 
L 628 4666 
L 2053 4666 
Q 2853 4666 3247 4331 
Q 3641 3997 3641 3322 
Q 3641 2881 3436 2590 
Q 3231 2300 2841 2188 
z
M 1259 4147 
L 1259 2491 
L 2053 2491 
Q 2509 2491 2742 2702 
Q 2975 2913 2975 3322 
Q 2975 3731 2742 3939 
Q 2509 4147 2053 4147 
L 1259 4147 
z
" transform="scale(0.015625)"/>
       <path id="DejaVuSans-66" d="M 2375 4863 
L 2375 4384 
L 1825 4384 
Q 1516 4384 1395 4259 
Q 1275 4134 1275 3809 
L 1275 3500 
L 2222 3500 
L 2222 3053 
L 1275 3053 
L 1275 0 
L 697 0 
L 697 3053 
L 147 3053 
L 147 3500 
L 697 3500 
L 697 3744 
Q 697 4328 969 4595 
Q 1241 4863 1831 4863 
L 2375 4863 
z
" transform="scale(0.015625)"/>
      </defs>
      <use xlink:href="#DejaVuSans-4b"/>
      <use xlink:href="#DejaVuSans-53" x="65.576172"/>
      <use xlink:href="#DejaVuSans-45" x="129.052734"/>
      <use xlink:href="#DejaVuSans-2d" x="192.236328"/>
      <use xlink:href="#DejaVuSans-52" x="228.320312"/>
      <use xlink:href="#DejaVuSans-65" x="293.302734"/>
      <use xlink:href="#DejaVuSans-66" x="354.826172"/>
      <use xlink:href="#DejaVuSans-69" x="390.03125"/>
      <use xlink:href="#DejaVuSans-6e" x="417.814453"/>
      <use xlink:href="#DejaVuSans-65" x="481.193359"/>
      <use xlink:href="#DejaVuSans-4c" x="542.716797"/>
      <use xlink:href="#DejaVuSans-42" x="598.429688"/>
     </g>
    </g>
   </g>
  </g>
 </g>
 <defs>
  <clipPath id="p191a8307f4">
   <rect x="52.71875" y="11.759062" width="781.2" height="171.864"/>
  </clipPath>
 </defs>
</svg>
